<svg xmlns="http://www.w3.org/2000/svg" width="722.105" height="204.35" viewBox="0 0 541.579 153.263"><path d="M133.054 74.73H116.72l-4.54-11.35c-4.665-11.67-15.8-19.209-28.37-19.209H49.157c-12.567 0-23.704 7.538-28.373 19.208l-4.64 11.358 13.882.242c2.892.03 5.319 1.587 5.42 3.478l-.027-.507 18.352.057-.359-8.774.482.005c-1.9-.02-3.533-1.796-3.65-3.968l-.282-5.243c-.116-2.173 1.329-3.918 3.228-3.898l25.218.257c1.899.02 3.533 1.796 3.65 3.968l.281 5.244c.117 2.172-1.328 3.917-3.227 3.897l.482.005 1.408 26.218-.483-.005c1.9.02 3.534 1.796 3.65 3.968l.282 5.244c.117 2.172-1.328 3.917-3.227 3.897l-25.217-.257c-1.9-.02-3.534-1.796-3.65-3.968l-.282-5.243c-.117-2.172 1.328-3.917 3.227-3.898l-.482-.005-.492-10.248-18.755-.192-.027-.507c.102 1.891-2.16 3.4-5.052 3.371l-23.472-.049C1.882 92.48 1 97.498 1 100.923v13.096c0 4.399 1.68 8.368 4.366 11.44v14.754c0 4.82 3.91 8.73 8.73 8.73h17.349v-14.908A2.56 2.56 0 0 1 34 131.48h64.97a2.56 2.56 0 0 1 2.553 2.554v14.909h17.347a8.732 8.732 0 0 0 8.732-8.731V125.46c2.684-3.07 4.365-7.04 4.365-11.44v-13.097c0-5.244-2.36-9.897-6.022-13.097h5.477a3.272 3.272 0 0 0 3.175-2.48l1.637-6.548a3.276 3.276 0 0 0-3.179-4.068zm32.043 63.571h1.463v12.577h7.752v1.266h-9.215zm23.741 12.577v1.266h-9.788V138.3h9.492v1.266h-8.03v4.924h7.16v1.246h-7.16v5.141zm5.746-12.577h1.463v13.843h-1.463zm8.277 0h1.464v12.577h7.752v1.266h-9.216zm19.727 13.962c-1.37 0-2.613-.307-3.727-.92a6.717 6.717 0 0 1-2.61-2.521c-.627-1.068-.94-2.268-.94-3.6 0-1.331.313-2.53.94-3.598a6.715 6.715 0 0 1 2.61-2.522c1.114-.613 2.356-.92 3.727-.92s2.607.304 3.708.91a6.728 6.728 0 0 1 2.6 2.522c.633 1.074.95 2.277.95 3.608 0 1.332-.317 2.535-.95 3.61a6.733 6.733 0 0 1-2.6 2.521c-1.1.606-2.337.91-3.708.91zm0-1.306c1.094 0 2.083-.247 2.966-.741a5.366 5.366 0 0 0 2.077-2.057c.5-.877.751-1.855.751-2.936s-.25-2.06-.751-2.937a5.367 5.367 0 0 0-2.077-2.057c-.883-.494-1.872-.741-2.966-.741s-2.086.247-2.976.741a5.42 5.42 0 0 0-2.096 2.057c-.507.876-.761 1.856-.761 2.936 0 1.082.254 2.06.76 2.937a5.42 5.42 0 0 0 2.097 2.057c.89.494 1.882.741 2.976.741zm1.345-13.901a1.58 1.58 0 0 1-.81-.208 4.718 4.718 0 0 1-.772-.584 5.453 5.453 0 0 0-.564-.425.832.832 0 0 0-.445-.128.9.9 0 0 0-.731.336c-.185.224-.284.534-.297.93h-.85c.026-.66.197-1.187.514-1.583.316-.395.738-.593 1.266-.593.303 0 .57.066.8.198.231.132.498.33.801.593.211.185.39.323.534.415a.89.89 0 0 0 1.166-.188c.186-.217.291-.517.317-.9h.85c-.026.647-.197 1.164-.513 1.553-.317.39-.739.584-1.266.584zm21.289 13.822v1.266h-9.789V138.3h9.493v1.266h-8.03v4.924h7.16v1.246h-7.16v5.141zm9.563 1.385a8.896 8.896 0 0 1-2.957-.495c-.942-.33-1.67-.764-2.185-1.305l.574-1.127c.5.5 1.166.906 1.997 1.216.83.31 1.687.465 2.57.465 1.24 0 2.17-.228 2.789-.683.62-.455.93-1.044.93-1.77 0-.553-.169-.995-.505-1.324a3.401 3.401 0 0 0-1.236-.762c-.488-.178-1.167-.372-2.037-.583-1.041-.264-1.872-.518-2.491-.762a4.09 4.09 0 0 1-1.592-1.117c-.442-.5-.663-1.18-.663-2.037 0-.698.185-1.335.554-1.908.37-.573.936-1.031 1.7-1.374.765-.343 1.715-.514 2.848-.514.791 0 1.566.108 2.324.326.758.217 1.414.518 1.968.9l-.495 1.166a6.803 6.803 0 0 0-1.859-.86 6.931 6.931 0 0 0-1.938-.287c-1.212 0-2.125.235-2.739.703-.613.468-.92 1.07-.92 1.809 0 .554.169.999.505 1.335.336.336.758.593 1.266.77.507.179 1.19.373 2.046.584 1.016.25 1.836.498 2.463.742a4.041 4.041 0 0 1 1.591 1.107c.435.495.653 1.164.653 2.007 0 .7-.188 1.335-.564 1.909-.375.573-.952 1.028-1.73 1.364-.778.336-1.733.505-2.867.505zm29.694-3.817h-7.713l-1.66 3.698h-1.523l6.327-13.843h1.444l6.328 13.843h-1.542zm-.534-1.186-3.322-7.436-3.323 7.435zm13.616 5.003c-1.793 0-3.19-.515-4.192-1.543-1.002-1.028-1.503-2.525-1.503-4.489v-7.93h1.463v7.87c0 1.61.363 2.809 1.088 3.6.725.79 1.773 1.186 3.144 1.186 1.384 0 2.44-.395 3.164-1.186.725-.791 1.088-1.99 1.088-3.6v-7.87h1.423v7.93c0 1.964-.497 3.46-1.493 4.489-.995 1.028-2.389 1.543-4.182 1.543zm14.803-12.696H307.5V138.3h11.192v1.266h-4.865v12.577h-1.463zm16.82 12.696c-1.37 0-2.613-.307-3.727-.92a6.717 6.717 0 0 1-2.61-2.521c-.627-1.068-.94-2.268-.94-3.6 0-1.331.313-2.53.94-3.598a6.715 6.715 0 0 1 2.61-2.522c1.114-.613 2.356-.92 3.727-.92s2.607.304 3.708.91a6.728 6.728 0 0 1 2.6 2.522c.633 1.074.95 2.277.95 3.608 0 1.332-.317 2.535-.95 3.61a6.733 6.733 0 0 1-2.6 2.521c-1.1.606-2.337.91-3.708.91zm0-1.306c1.094 0 2.083-.247 2.966-.741a5.366 5.366 0 0 0 2.077-2.057c.5-.877.751-1.855.751-2.936s-.25-2.06-.751-2.937a5.367 5.367 0 0 0-2.077-2.057c-.883-.494-1.872-.741-2.966-.741s-2.086.247-2.976.741a5.42 5.42 0 0 0-2.096 2.057c-.508.876-.762 1.856-.762 2.936 0 1.082.254 2.06.762 2.937a5.42 5.42 0 0 0 2.096 2.057c.89.494 1.882.741 2.976.741zm27.222-12.656v13.843h-1.404V141.07l-5.438 9.314h-.692l-5.439-9.255v11.015h-1.404V138.3h1.207l6.011 10.263 5.952-10.263zm12.865 13.962c-1.371 0-2.614-.307-3.728-.92a6.718 6.718 0 0 1-2.61-2.521c-.626-1.068-.94-2.268-.94-3.6 0-1.331.314-2.53.94-3.598a6.716 6.716 0 0 1 2.61-2.522c1.114-.613 2.357-.92 3.728-.92s2.607.304 3.708.91a6.728 6.728 0 0 1 2.6 2.522c.633 1.074.95 2.277.95 3.608 0 1.332-.317 2.535-.95 3.61a6.732 6.732 0 0 1-2.6 2.521c-1.101.606-2.337.91-3.708.91zm0-1.306c1.094 0 2.083-.247 2.966-.741a5.366 5.366 0 0 0 2.076-2.057c.502-.877.752-1.855.752-2.936s-.25-2.06-.752-2.937a5.367 5.367 0 0 0-2.076-2.057c-.883-.494-1.872-.741-2.966-.741s-2.086.247-2.976.741a5.42 5.42 0 0 0-2.096 2.057c-.508.876-.762 1.856-.762 2.936 0 1.082.254 2.06.762 2.937a5.42 5.42 0 0 0 2.096 2.057c.89.494 1.882.741 2.976.741zm15.337-11.39h-4.865V138.3h11.193v1.266h-4.865v12.577h-1.463zm10.966-1.266h1.464v13.843h-1.464zm19.628 0-6.13 13.843h-1.443l-6.13-13.843h1.581l5.3 12.024 5.34-12.024zm10.235 13.962c-1.37 0-2.613-.307-3.727-.92a6.717 6.717 0 0 1-2.61-2.521c-.627-1.068-.94-2.268-.94-3.6 0-1.331.313-2.53.94-3.598a6.715 6.715 0 0 1 2.61-2.522c1.114-.613 2.356-.92 3.727-.92 1.372 0 2.608.304 3.708.91a6.73 6.73 0 0 1 2.6 2.522c.634 1.074.95 2.277.95 3.608 0 1.332-.316 2.535-.95 3.61a6.734 6.734 0 0 1-2.6 2.521c-1.1.606-2.336.91-3.708.91zm0-1.306c1.095 0 2.083-.247 2.967-.741a5.366 5.366 0 0 0 2.076-2.057c.501-.877.751-1.855.751-2.936s-.25-2.06-.751-2.937a5.367 5.367 0 0 0-2.076-2.057c-.884-.494-1.872-.741-2.967-.741-1.094 0-2.086.247-2.976.741a5.42 5.42 0 0 0-2.096 2.057c-.507.876-.761 1.856-.761 2.936 0 1.082.254 2.06.761 2.937a5.42 5.42 0 0 0 2.096 2.057c.89.494 1.882.741 2.976.741zm16.662 1.306a8.895 8.895 0 0 1-2.956-.495c-.943-.33-1.671-.764-2.185-1.305l.573-1.127c.501.5 1.167.906 1.998 1.216.83.31 1.687.465 2.57.465 1.24 0 2.169-.228 2.788-.683.62-.455.93-1.044.93-1.77 0-.553-.168-.995-.504-1.324a3.403 3.403 0 0 0-1.236-.762c-.488-.178-1.167-.372-2.037-.583-1.042-.264-1.872-.518-2.492-.762a4.09 4.09 0 0 1-1.592-1.117c-.441-.5-.662-1.18-.662-2.037 0-.698.185-1.335.554-1.908.369-.573.935-1.031 1.7-1.374.765-.343 1.714-.514 2.848-.514.79 0 1.565.108 2.323.326.759.217 1.414.518 1.968.9l-.494 1.166a6.804 6.804 0 0 0-1.86-.86 6.932 6.932 0 0 0-1.937-.287c-1.213 0-2.126.235-2.74.703-.612.468-.919 1.07-.919 1.809 0 .554.168.999.505 1.335.336.336.758.593 1.265.77.508.179 1.19.373 2.047.584 1.015.25 1.836.498 2.462.742a4.041 4.041 0 0 1 1.592 1.107c.435.495.652 1.164.652 2.007 0 .7-.187 1.335-.563 1.909-.376.573-.953 1.028-1.73 1.364-.778.336-1.734.505-2.868.505zM182.843 104.65h30.879c1.537 0 2.69.05 3.459.15.769.1 1.654.418 2.657.953 1.804.936 2.707 3.542 2.707 7.82 0 4.679-1.237 7.419-3.71 8.221-1.136.401-2.874.602-5.213.602H173.92c-4.679 0-7.419-1.27-8.221-3.81-.401-1.07-.602-2.774-.602-5.113V57.73c0-3.409.635-5.731 1.905-6.968 1.27-1.236 3.677-1.855 7.219-1.855h39.501c1.537 0 2.69.05 3.459.15.769.101 1.654.418 2.657.953 1.804.936 2.707 3.543 2.707 7.82 0 4.679-1.237 7.42-3.71 8.221-1.136.401-2.874.602-5.213.602h-30.78v10.126h19.852c1.537 0 2.69.05 3.459.15.768.1 1.654.418 2.657.952 1.804.936 2.706 3.543 2.706 7.82 0 4.68-1.27 7.42-3.81 8.222-1.135.4-2.873.601-5.213.601h-19.65zm330.683 3.25.048.05 12.49 12.488s4.3 4.58 8.602.833c4.302-3.747 4.024-3.885 4.024-3.885s4.163-3.609-.416-9.02L525.716 95.67l.086-.087 12.628-12.766c4.579-5.411.416-9.02.416-9.02s.278-.138-4.024-3.885c-4.302-3.746-8.603.833-8.603.833l-7.933 7.932.006-.006-4.612 4.612-.05-.05-12.488-12.489s-4.301-4.579-8.603-.832c-4.302 3.746-4.024 3.885-4.024 3.885s-4.163 3.608.417 9.02l12.558 12.696-.087.087-12.627 12.766c-4.58 5.411-.416 9.02-.416 9.02s-.278.138 4.024 3.885c4.301 3.746 8.603-.833 8.603-.833l7.932-7.932-.006.006zm-56.207 0 .049.05 12.488 12.488s4.302 4.58 8.603.833c4.302-3.747 4.025-3.885 4.025-3.885s4.163-3.609-.417-9.02L469.51 95.67l.087-.087 12.627-12.766c4.58-5.411.416-9.02.416-9.02s.278-.138-4.024-3.885c-4.302-3.746-8.603.833-8.603.833l-7.933 7.932.006-.006-4.612 4.612-.049-.05-12.488-12.489s-4.301-4.579-8.603-.832c-4.302 3.746-4.025 3.885-4.025 3.885s-4.162 3.608.417 9.02l12.558 12.696-.087.087-12.627 12.766c-4.579 5.411-.416 9.02-.416 9.02s-.278.138 4.024 3.885c4.302 3.746 8.603-.833 8.603-.833l7.932-7.932-.005.006zm-95.17 15.155s-3.58.226-7.453-1.311c-.068-.026-.134-.054-.2-.08l-.087-.036c-1.877-.77-3.376-1.8-4.572-2.966-.048-.046-.094-.093-.141-.14-.051-.05-.102-.1-.151-.152-1.162-1.191-2.187-2.685-2.956-4.552l-.05-.123-.071-.177c-1.54-3.875-1.313-7.457-1.313-7.457V51.577s-.196-6.28 5.495-6.672c5.69-.393 5.592-.098 5.592-.098s5.495-.393 6.084 6.672l.097 54.308 9.028.097c7.064.59 6.672 6.084 6.672 6.084s.295-.098-.098 5.593c-.393 5.69-6.672 5.494-6.672 5.494h-8.831zm66.974-33.393c0 4.11-1.019 7.151-3.058 9.123-2.038 1.972-4.294 2.958-6.767 2.958h-23.76c0 1.871 1.102 3.442 3.308 4.712 2.205 1.27 4.41 1.905 6.617 1.905 3.876 0 6.917-.401 9.123-1.203l1.103-.402c1.604-.734 2.94-1.102 4.01-1.102 2.139 0 3.977 1.504 5.514 4.511.869 1.805 1.304 3.342 1.304 4.612 0 5.949-7.119 8.923-21.355 8.923-4.946 0-9.34-.852-13.184-2.557-3.843-1.704-6.834-3.96-8.973-6.767-4.21-5.414-6.316-11.463-6.316-18.147 0-8.421 2.724-15.155 8.17-20.201 5.448-5.046 12.249-7.57 20.403-7.57 9.29 0 16.108 3.276 20.453 9.826 2.272 3.475 3.408 7.268 3.408 11.379zm-21.154 2.957c2.54 0 3.81-1.07 3.81-3.208 0-1.537-.585-2.774-1.755-3.71-1.17-.935-2.84-1.403-5.012-1.403-2.173 0-4.328.885-6.467 2.657-2.139 1.771-3.208 3.66-3.208 5.664zm-75.474-43.712c1.538 0 2.69.05 3.46.15.768.101 1.637.418 2.606.953.97.535 1.654 1.437 2.055 2.707.401 1.27.602 2.974.602 5.113 0 2.14-.2 3.843-.602 5.113-.4 1.27-1.103 2.156-2.105 2.657-1.003.501-1.888.802-2.657.902-.769.1-1.955.15-3.559.15h-30.679V76.78h19.75c1.605 0 2.791.05 3.56.15.769.1 1.654.418 2.657.952 1.738 1.003 2.606 3.643 2.606 7.92 0 4.68-1.27 7.453-3.81 8.322-1.069.334-2.773.502-5.113.502h-19.65v18.948c0 1.604-.05 2.774-.15 3.51-.1.734-.418 1.603-.952 2.606-.936 1.804-3.543 2.707-7.82 2.707-4.68 0-7.42-1.27-8.222-3.81-.4-1.07-.601-2.774-.601-5.113V57.73c0-3.409.635-5.731 1.905-6.968 1.27-1.236 3.676-1.855 7.218-1.855zM227.517 112.07c-1.738-2.139-2.607-4.06-2.607-5.765 0-1.704 1.437-3.96 4.311-6.767 1.67-1.604 3.442-2.406 5.314-2.406 1.871 0 4.478 1.67 7.82 5.013.935 1.136 2.272 2.222 4.01 3.258s3.342 1.554 4.812 1.554c6.216 0 9.324-2.54 9.324-7.62 0-1.537-.852-2.823-2.556-3.86-1.705-1.035-3.827-1.787-6.367-2.255-2.54-.468-5.28-1.22-8.22-2.256-2.942-1.036-5.682-2.256-8.222-3.66-2.54-1.403-4.662-3.625-6.366-6.666-1.705-3.041-2.557-6.7-2.557-10.978 0-5.882 2.19-11.012 6.567-15.39 4.378-4.378 10.343-6.567 17.896-6.567 4.01 0 7.67.518 10.978 1.554s5.598 2.089 6.868 3.158l2.506 1.905c2.072 1.938 3.108 3.576 3.108 4.913 0 1.337-.802 3.175-2.406 5.514-2.273 3.342-4.612 5.013-7.018 5.013-1.404 0-3.141-.669-5.214-2.005-.2-.134-.584-.468-1.152-1.003a15.318 15.318 0 0 0-1.554-1.303c-1.404-.87-3.192-1.304-5.364-1.304-2.173 0-3.977.518-5.414 1.554-1.437 1.036-2.156 2.473-2.156 4.311s.853 3.326 2.557 4.462c1.704 1.136 3.826 1.905 6.366 2.306 2.54.4 5.314 1.02 8.322 1.855 3.007.835 5.781 1.854 8.32 3.057 2.54 1.204 4.663 3.292 6.367 6.266 1.704 2.975 2.557 6.634 2.557 10.978 0 4.345-.87 8.171-2.607 11.48-1.738 3.308-4.01 5.865-6.817 7.67-5.414 3.542-11.196 5.313-17.345 5.313-3.141 0-6.116-.384-8.923-1.153-2.807-.768-5.08-1.72-6.817-2.857-3.542-2.139-6.016-4.21-7.42-6.216zM70.457 27.311a3.97 3.97 0 0 1-7.941 0V16.14a3.97 3.97 0 0 1 7.94 0zm27.156 9.391a3.953 3.953 0 1 1-6.856-3.939l11.17-19.347a3.953 3.953 0 1 1 6.856 3.939zm-55.398-3.955a3.961 3.961 0 0 1-6.855 3.97L24.19 17.372a3.961 3.961 0 0 1 6.855-3.97zM20.48 44.614a3.954 3.954 0 0 1-3.94 6.855l-9.673-5.584a3.953 3.953 0 0 1 3.94-6.856zm95.952 6.855a3.953 3.953 0 1 1-3.94-6.855l9.674-5.585a3.953 3.953 0 0 1 3.94 6.856zM70.457 7.69a3.97 3.97 0 0 1-7.941 0V4.97a3.97 3.97 0 0 1 7.94 0zm39.681 107.606c-5.238 0-13.096.87-13.096-4.352S104.9 97.89 110.138 97.89c5.24 0 8.731 3.48 8.731 8.703 0 5.222-3.492 8.704-8.73 8.704zm-87.31 0c-5.239 0-8.731-3.482-8.731-8.704s3.492-8.703 8.73-8.703c5.24 0 13.097 7.833 13.097 13.055 0 5.222-7.857 4.352-13.096 4.352" fill="#fff" fill-rule="evenodd"/></svg>